PathFileType	4	(X/Y/Z)	C:\Users\°ÂÌØÂü\Desktop\20210112\bx_n_5_501-Unnamed.trc
DataRate	CameraRate	NumFrames	NumMarkers	Units	OrigDataRate	OrigDataStartFrame	OrigNumFrames
50.00	50.00	       6	0	mm	50.00	388	       517
Frame#	Time	
		

388	7.740	-163.28830	144.14673	1389.94812	-766.50568	244.62573	1014.97729	-748.47833	-0.91251	804.29840	-797.42767	148.96114	570.18744	-845.40326	284.29773	730.33490	-756.22296	228.19212	791.93884	-849.64423	257.05728	626.48596	-771.34546	211.51994	536.72186	-854.86151	263.80701	483.42401	-517.92358	-72.83397	143.17325	-549.57483	-21.72591	162.41190	-795.46216	33.46647	173.78195				-600.98584	28.95334	166.71521	-936.15863	94.84789	1096.48083	-721.76880	158.88960	223.91997	-799.16650	182.05902	182.34763	-773.92834	231.39859	202.14047	-594.66144	218.10768	173.49379	-882.57391	296.03226	144.63980	-557.72217	253.46233	163.51801	-660.29871	298.58234	156.02980	-623.52850	306.65140	158.51184	-527.93878	304.11139	146.39842	-675.90393	51.18788	162.81053	-813.39301	-36.98749	561.15857	-834.35352	-52.81579	473.94424	-762.80200	-26.06292	204.02643	-875.87097	-78.64214	141.18979	-833.56964	-70.88620	863.58301	-815.64185	-37.90276	608.15240	-760.04193	0.01399	993.93787	-677.56458	175.65147	163.51268	-605.36932	-72.72753	157.18245	-647.61108	-67.40018	162.00713	-830.10687	-65.26861	747.05713	-729.11658	64.21735	220.24875	-354.71609	-27.67570	1196.60327				-867.60596	290.52896	864.72797	-799.14178	70.64648	564.60645	-755.29321	14.41282	525.12018	-834.85126	252.55249	562.73401	
389	7.760	-166.14922	143.86115	1396.21216	-766.13391	244.50885	1015.65161	-748.04810	-1.22152	803.89618	-797.48590	148.87939	570.08667	-844.81628	284.27121	730.43402	-755.68268	227.98030	791.91473	-849.36719	256.74466	626.61829	-771.01190	211.64850	536.70258	-854.58411	263.92075	483.44980	-517.81189	-72.61403	143.14835	-549.58929	-21.62633	162.52303	-795.41180	33.50145	173.61169	-381.28748	288.76862	1199.96643	-601.21655	28.87093	166.58096	-935.91534	94.36907	1095.89478	-721.70642	158.99826	223.98077	-799.40369	181.77879	182.41782	-773.78949	231.25819	201.96291	-594.54376	218.63440	173.61777	-882.65656	296.10242	144.63945	-557.73193	253.70772	163.66995	-660.40344	298.65070	156.01486	-623.46057	306.55713	158.45439	-527.93164	304.15149	146.45345	-676.01105	51.38222	162.71194	-813.35980	-37.16698	561.09467	-834.16656	-53.21188	473.99796	-762.79187	-25.87160	203.48315	-875.88751	-78.54328	141.29303	-832.88354	-70.82995	863.38147	-815.27087	-38.72948	608.77405	-759.69824	-0.36300	994.75903	-677.20331	175.50844	163.49203	-605.31812	-72.65929	157.07652	-647.76392	-67.43682	162.07959	-829.56671	-65.77191	747.33875	-729.22406	64.21169	220.10934	-355.41931	-28.48292	1201.76208				-867.04950	290.18921	864.73206	-798.72479	70.43246	564.59821	-755.28430	14.21663	524.87671	-834.50000	252.09891	562.83759	
390	7.780	-169.05440	143.55640	1403.69727	-766.02887	244.23184	1016.39496	-747.80542	-1.68228	803.88965	-796.99805	148.81946	569.80554	-844.40289	283.94516	730.49817	-754.91516	227.84444	791.91327	-848.89459	256.40414	626.15594	-770.84033	211.42981	536.65417	-854.31683	263.87198	483.48792	-517.90857	-72.60441	143.07619	-549.62061	-21.65542	162.44745	-795.47089	33.51495	173.71696	-383.39923	288.72961	1204.41418	-601.08820	28.89922	166.69437	-935.93304	93.92696	1095.51660	-721.62012	159.18503	223.83066	-799.32184	181.73764	182.43956	-773.96368	231.34454	202.13147	-594.59137	218.07071	173.39752	-882.65900	296.05212	144.68359	-557.70526	253.70923	163.58562	-660.29871	298.58234	156.02980	-623.52850	306.65140	158.51184	-527.87457	304.16431	146.41510	-675.94189	51.12701	162.91576	-812.97815	-37.53071	561.25439	-834.20599	-53.22546	473.93689	-763.08746	-25.98873	203.49721	-876.00275	-78.74174	141.50209	-832.42053	-71.04570	863.42035	-815.37372	-38.48406	608.26105	-759.28235	-0.42063	995.43817	-677.56458	175.65147	163.51268	-605.31812	-72.65929	157.07652	-647.76855	-67.45979	162.05461	-829.28809	-65.88790	747.12732	-729.05115	64.06655	220.34758	-356.97000	-28.44003	1206.71362				-866.39313	290.07007	865.01556	-798.53656	70.36886	564.54175	-755.28430	14.21663	524.87671	-833.91547	251.74255	562.58844	
391	7.800	-172.78690	143.27550	1411.86316	-765.80359	244.06711	1017.16412	-747.07574	-2.16507	803.78931	-796.44086	148.59102	569.93134	-843.91638	283.79373	730.56018	-754.53125	227.68149	791.96954	-848.80206	256.53894	626.66052	-770.66730	211.25027	536.57043	-854.27728	263.76694	483.65884	-517.85815	-72.61373	143.05775	-549.75903	-21.89314	162.19987	-795.34326	33.68933	173.53098				-600.98242	28.85056	166.63747	-935.74414	93.32941	1095.09766	-721.75372	158.72839	223.28604	-799.32184	181.73764	182.43956	-773.74023	231.18878	201.91998	-594.63965	218.68596	173.61418	-882.61523	295.96207	144.56779	-557.75317	253.69809	163.75542	-660.29871	298.58234	156.02980	-623.61542	306.64639	158.59305	-527.95319	304.22159	146.40561	-676.00824	51.20490	162.65976	-812.73340	-37.68877	561.18597	-834.20551	-53.52138	474.07764	-763.25812	-25.81249	203.72235	-875.88159	-78.69018	141.14127	-831.79388	-71.37079	863.60162	-815.00684	-38.80413	608.59406	-758.59058	-0.72111	996.04901	-677.04694	175.24255	163.81253	-605.25140	-72.80124	157.23059	-647.45471	-67.46533	162.10921	-828.84100	-66.33598	747.01813	-729.11658	64.21735	220.24875	-358.59344	-28.83653	1212.33740				-865.60620	289.24442	864.87128	-797.98895	70.12113	564.72601	-754.93176	14.11245	524.76819	-833.57568	252.16397	563.14026	
392	7.820	-177.22757	143.58586	1420.37097	-765.21350	243.79604	1018.26727	-746.56873	-2.70462	803.96686	-796.11322	148.41890	570.01147	-843.49396	283.44281	730.70953	-754.08069	227.01453	792.14093	-848.11804	256.35812	626.64594	-770.29279	211.11502	536.42938	-854.06146	263.59158	483.57944	-517.84460	-72.78885	143.08914	-549.67493	-21.85686	162.39851	-795.38562	33.60787	173.39870	-387.82623	288.87839	1215.12390	-601.00104	28.71161	166.57956	-935.78003	92.90420	1095.04065	-721.90680	158.57588	223.34038	-799.32184	181.73764	182.43956	-773.99237	231.05095	201.86826	-594.56213	218.44952	173.71022	-882.56097	295.85876	144.55739	-557.90668	253.61786	163.49283	-660.29871	298.58234	156.02980	-623.61542	306.64639	158.59305	-527.99518	304.29547	146.52264	-676.04767	51.27989	162.71678	-812.59637	-37.60418	561.20795	-833.98682	-53.64460	473.98761	-763.27930	-25.65595	203.62125	-875.95648	-78.79716	141.44162	-831.07465	-71.78899	863.76941	-814.82239	-39.08461	608.71759	-758.32147	-0.96150	996.93481	-677.23401	175.79521	163.09514	-605.31812	-72.65929	157.07652	-647.94568	-67.50262	161.95145	-828.57721	-66.09557	746.89624	-729.21448	64.46672	220.13533	-360.14673	-29.50344	1218.56458				-865.04675	289.22141	865.17725	-797.90076	70.10213	564.84332	-754.51019	14.08323	524.81293	-833.39838	252.43555	563.46295	
393	7.840	-181.57321	143.41025	1430.09473	-764.63867	242.86607	1018.80396	-746.07385	-3.07437	804.09436	-795.81262	148.37924	570.10657	-842.85913	282.67252	730.57257	-753.40997	226.22189	792.04791	-847.38110	255.83894	626.50574	-769.89459	210.82306	536.78314	-853.89972	263.55240	483.83438	-517.84247	-72.51334	143.03267	-549.62714	-21.86203	162.47748	-795.39130	33.68146	173.49298	-390.19830	288.59167	1221.09326	-601.11560	28.83993	166.68558	-935.73773	92.58947	1094.71936	-721.73364	158.83989	223.03989	-799.27380	181.64516	182.35004	-773.94794	231.15050	201.80180	-594.76294	218.80663	173.71240	-882.56305	296.07129	144.68799	-557.72882	253.58121	163.62070	-660.40344	298.65070	156.01486	-623.70770	306.64960	158.49756	-527.98065	304.12701	146.48436	-675.86731	51.29022	162.80569	-811.93445	-37.77439	560.45605	-833.69916	-53.75455	473.81351	-763.23987	-25.75924	203.51457	-875.87097	-78.64214	141.18979	-830.50757	-72.06669	863.76550	-814.12872	-39.11691	608.36115	-757.48376	-1.31958	997.67188	-677.48871	175.66678	163.36938	-605.50153	-72.55392	156.86502	-647.79993	-67.59285	162.02570	-828.02728	-66.42152	747.14716	-728.85907	64.56381	220.03435							-864.29761	288.76050	865.25189	-797.47040	69.92678	564.98090	-754.09454	13.93101	524.85760	-833.06036	252.12325	563.42200	
